<svg xmlns:xlink="http://www.w3.org/1999/xlink" xmlns="http://www.w3.org/2000/svg" class="menu-button__icon" viewBox="0 0 10 10" width="10" height="10"><defs><g id="menu">
			<path fill-rule="evenodd" clip-rule="evenodd" d="M0 1C0 0.447715 0.447715 0 1 0H9C9.55229 0 10 0.447715 10 1C10 1.55228 9.55229 2 9 2H1C0.447715 2 0 1.55228 0 1Z"></path>
			<path fill-rule="evenodd" clip-rule="evenodd" d="M0 5C0 4.44772 0.447715 4 1 4H9C9.55229 4 10 4.44772 10 5C10 5.55228 9.55229 6 9 6H1C0.447715 6 0 5.55228 0 5Z"></path>
			<path fill-rule="evenodd" clip-rule="evenodd" d="M0 9C0 8.44772 0.447715 8 1 8H9C9.55229 8 10 8.44772 10 9C10 9.55228 9.55229 10 9 10H1C0.447715 10 0 9.55228 0 9Z"></path>
		</g></defs>
          <use xlink:href="#menu" fill="#20BCC1"></use>
        </svg>